<mxfile host="app.diagrams.net" modified="2023-12-29T05:50:48.499Z" agent="Mozilla/5.0 (Windows NT 10.0; Win64; x64) AppleWebKit/537.36 (KHTML, like Gecko) Chrome/120.0.0.0 Safari/537.36" etag="jrVquOqzUAWPbHs_qeiR" version="22.1.15" type="github">
  <diagram name="Page-1" id="bU4TZIyEwy8AfX-bFpOj">
    <mxGraphModel dx="1434" dy="780" grid="1" gridSize="10" guides="1" tooltips="1" connect="1" arrows="1" fold="1" page="1" pageScale="1" pageWidth="850" pageHeight="1100" math="0" shadow="0">
      <root>
        <mxCell id="0" />
        <mxCell id="1" parent="0" />
        <mxCell id="R_RmLZQFqdIKDm-wRBUi-1" value="Administrative Staff" style="shape=umlActor;verticalLabelPosition=bottom;verticalAlign=top;html=1;" vertex="1" parent="1">
          <mxGeometry x="650" y="160" width="30" height="60" as="geometry" />
        </mxCell>
        <mxCell id="R_RmLZQFqdIKDm-wRBUi-2" value="Customer" style="shape=umlActor;verticalLabelPosition=bottom;verticalAlign=top;html=1;" vertex="1" parent="1">
          <mxGeometry x="130" y="320" width="30" height="60" as="geometry" />
        </mxCell>
        <mxCell id="R_RmLZQFqdIKDm-wRBUi-3" value="Technical Staff" style="shape=umlActor;verticalLabelPosition=bottom;verticalAlign=top;html=1;" vertex="1" parent="1">
          <mxGeometry x="650" y="390" width="30" height="60" as="geometry" />
        </mxCell>
        <mxCell id="R_RmLZQFqdIKDm-wRBUi-4" value="" style="rounded=0;whiteSpace=wrap;html=1;" vertex="1" parent="1">
          <mxGeometry x="250" y="80" width="340" height="810" as="geometry" />
        </mxCell>
        <mxCell id="R_RmLZQFqdIKDm-wRBUi-5" value="Advertising Use Case System" style="text;strokeColor=#82b366;align=center;fillColor=#d5e8d4;html=1;verticalAlign=middle;whiteSpace=wrap;rounded=0;" vertex="1" parent="1">
          <mxGeometry x="330" y="100" width="170" height="30" as="geometry" />
        </mxCell>
        <mxCell id="R_RmLZQFqdIKDm-wRBUi-6" value="Record campaign details" style="ellipse;whiteSpace=wrap;html=1;" vertex="1" parent="1">
          <mxGeometry x="350" y="270" width="140" height="70" as="geometry" />
        </mxCell>
        <mxCell id="R_RmLZQFqdIKDm-wRBUi-7" value="Assess Proposed Campaign" style="ellipse;whiteSpace=wrap;html=1;" vertex="1" parent="1">
          <mxGeometry x="350" y="370" width="140" height="70" as="geometry" />
        </mxCell>
        <mxCell id="R_RmLZQFqdIKDm-wRBUi-8" value="Revise Recommended&amp;nbsp; &amp;nbsp;Campaign " style="ellipse;whiteSpace=wrap;html=1;" vertex="1" parent="1">
          <mxGeometry x="350" y="470" width="140" height="70" as="geometry" />
        </mxCell>
        <mxCell id="R_RmLZQFqdIKDm-wRBUi-9" value="Commission Campaign  " style="ellipse;whiteSpace=wrap;html=1;" vertex="1" parent="1">
          <mxGeometry x="350" y="570" width="140" height="70" as="geometry" />
        </mxCell>
        <mxCell id="R_RmLZQFqdIKDm-wRBUi-10" value="Produce Advertisements" style="ellipse;whiteSpace=wrap;html=1;" vertex="1" parent="1">
          <mxGeometry x="350" y="680" width="140" height="70" as="geometry" />
        </mxCell>
        <mxCell id="R_RmLZQFqdIKDm-wRBUi-11" value=" Stop/Complete Campaign" style="ellipse;whiteSpace=wrap;html=1;" vertex="1" parent="1">
          <mxGeometry x="350" y="770" width="140" height="70" as="geometry" />
        </mxCell>
        <mxCell id="R_RmLZQFqdIKDm-wRBUi-12" value="" style="endArrow=none;startArrow=none;endFill=0;startFill=0;endSize=8;html=1;verticalAlign=bottom;labelBackgroundColor=none;strokeWidth=3;rounded=0;exitX=1;exitY=0.5;exitDx=0;exitDy=0;" edge="1" parent="1" source="R_RmLZQFqdIKDm-wRBUi-6">
          <mxGeometry width="160" relative="1" as="geometry">
            <mxPoint x="490" y="150.00000000000006" as="sourcePoint" />
            <mxPoint x="640" y="190" as="targetPoint" />
          </mxGeometry>
        </mxCell>
        <mxCell id="R_RmLZQFqdIKDm-wRBUi-13" value="" style="endArrow=none;startArrow=none;endFill=0;startFill=0;endSize=8;html=1;verticalAlign=bottom;labelBackgroundColor=none;strokeWidth=3;rounded=0;exitX=0.976;exitY=0.619;exitDx=0;exitDy=0;exitPerimeter=0;" edge="1" parent="1" source="R_RmLZQFqdIKDm-wRBUi-7">
          <mxGeometry width="160" relative="1" as="geometry">
            <mxPoint x="500" y="390" as="sourcePoint" />
            <mxPoint x="640" y="410" as="targetPoint" />
          </mxGeometry>
        </mxCell>
        <mxCell id="R_RmLZQFqdIKDm-wRBUi-14" value="" style="endArrow=none;startArrow=none;endFill=0;startFill=0;endSize=8;html=1;verticalAlign=bottom;labelBackgroundColor=none;strokeWidth=3;rounded=0;entryX=-0.012;entryY=0.393;entryDx=0;entryDy=0;entryPerimeter=0;" edge="1" parent="1">
          <mxGeometry width="160" relative="1" as="geometry">
            <mxPoint x="160" y="340" as="sourcePoint" />
            <mxPoint x="358.31999999999994" y="787.51" as="targetPoint" />
          </mxGeometry>
        </mxCell>
        <mxCell id="R_RmLZQFqdIKDm-wRBUi-15" value="" style="endArrow=none;startArrow=none;endFill=0;startFill=0;endSize=8;html=1;verticalAlign=bottom;labelBackgroundColor=none;strokeWidth=3;rounded=0;exitX=1;exitY=0.5;exitDx=0;exitDy=0;" edge="1" parent="1" source="R_RmLZQFqdIKDm-wRBUi-10">
          <mxGeometry width="160" relative="1" as="geometry">
            <mxPoint x="540" y="570" as="sourcePoint" />
            <mxPoint x="640" y="410" as="targetPoint" />
          </mxGeometry>
        </mxCell>
        <mxCell id="R_RmLZQFqdIKDm-wRBUi-16" value="" style="endArrow=none;startArrow=none;endFill=0;startFill=0;endSize=8;html=1;verticalAlign=bottom;labelBackgroundColor=none;strokeWidth=3;rounded=0;entryX=0;entryY=0.5;entryDx=0;entryDy=0;exitX=1;exitY=0.3333333333333333;exitDx=0;exitDy=0;exitPerimeter=0;" edge="1" parent="1" source="R_RmLZQFqdIKDm-wRBUi-2" target="R_RmLZQFqdIKDm-wRBUi-8">
          <mxGeometry width="160" relative="1" as="geometry">
            <mxPoint x="230" y="300" as="sourcePoint" />
            <mxPoint x="358" y="568" as="targetPoint" />
            <Array as="points" />
          </mxGeometry>
        </mxCell>
        <mxCell id="R_RmLZQFqdIKDm-wRBUi-17" value="" style="endArrow=none;startArrow=none;endFill=0;startFill=0;endSize=8;html=1;verticalAlign=bottom;labelBackgroundColor=none;strokeWidth=3;rounded=0;entryX=0;entryY=0.5;entryDx=0;entryDy=0;" edge="1" parent="1" target="R_RmLZQFqdIKDm-wRBUi-9">
          <mxGeometry width="160" relative="1" as="geometry">
            <mxPoint x="160" y="350" as="sourcePoint" />
            <mxPoint x="288" y="609" as="targetPoint" />
            <Array as="points">
              <mxPoint x="160" y="340" />
            </Array>
          </mxGeometry>
        </mxCell>
        <mxCell id="R_RmLZQFqdIKDm-wRBUi-18" value="Propose campaign&amp;nbsp;" style="ellipse;whiteSpace=wrap;html=1;" vertex="1" parent="1">
          <mxGeometry x="350" y="170" width="140" height="70" as="geometry" />
        </mxCell>
        <mxCell id="R_RmLZQFqdIKDm-wRBUi-19" value="" style="endArrow=none;startArrow=none;endFill=0;startFill=0;endSize=8;html=1;verticalAlign=bottom;labelBackgroundColor=none;strokeWidth=3;rounded=0;entryX=0;entryY=0.5;entryDx=0;entryDy=0;" edge="1" parent="1" target="R_RmLZQFqdIKDm-wRBUi-18">
          <mxGeometry width="160" relative="1" as="geometry">
            <mxPoint x="160" y="340" as="sourcePoint" />
            <mxPoint x="310" y="340" as="targetPoint" />
            <Array as="points" />
          </mxGeometry>
        </mxCell>
      </root>
    </mxGraphModel>
  </diagram>
</mxfile>
